<svg version="1.1" id="Layer_1" xmlns="http://www.w3.org/2000/svg" xmlns:xlink="http://www.w3.org/1999/xlink" x="0px" y="0px"
	 width="100%" viewBox="0 0 992 992" enable-background="new 0 0 992 992" xml:space="preserve">
<path fill="#f4f9ff" opacity="1.000000" stroke="none" 
	d="
M558.686707,725.618042 
	C625.085083,710.687988 671.155273,670.267700 703.873840,612.718994 
	C705.026367,610.691711 706.077881,608.599121 707.346191,606.647217 
	C710.127930,602.366089 714.057617,601.446777 718.519409,604.011963 
	C722.938477,606.552490 721.737549,610.096619 719.925598,613.516846 
	C695.890381,658.886597 664.699646,697.524475 617.977173,721.458313 
	C594.748657,733.357178 570.002441,740.189148 544.169983,743.394714 
	C521.586304,746.197144 498.932251,746.408630 476.352570,744.168152 
	C415.551361,738.135010 361.502289,715.943787 315.998169,674.708923 
	C271.993073,634.832397 244.759964,585.039734 232.022354,527.340637 
	C225.353455,497.131653 223.731064,466.505249 226.455811,435.545044 
	C230.018463,395.063934 240.270264,356.564240 259.172577,320.637512 
	C297.678864,247.450500 356.793274,200.634430 438.358307,184.175552 
	C479.686249,175.836090 521.101929,175.890640 561.599243,189.835098 
	C581.728394,196.766205 600.206848,207.024628 617.957397,218.669983 
	C622.273682,221.501694 626.670715,224.227707 631.166016,226.762222 
	C633.610901,228.140686 636.262268,229.281876 638.955444,230.067780 
	C648.713562,232.915314 655.557129,226.944382 654.286926,216.827011 
	C653.623962,211.545883 652.899414,206.272507 652.221313,200.993240 
	C651.309448,193.894028 652.791687,190.501617 657.151611,189.647430 
	C664.627075,188.182861 667.972595,190.184036 669.977783,197.749268 
	C672.108215,205.787018 673.925354,213.907242 675.985901,221.964188 
	C683.856567,252.740005 696.857971,281.631378 708.748840,310.928894 
	C711.128723,316.792542 713.502258,322.663757 716.096619,328.433472 
	C717.766785,332.147644 717.543823,335.382172 714.114990,337.693481 
	C710.414917,340.187622 706.707092,339.462402 703.763062,336.257721 
	C701.978455,334.315155 700.620483,331.965057 699.169617,329.733826 
	C675.942017,294.012329 649.242859,261.406097 614.768616,235.799118 
	C584.443420,213.274048 550.725159,199.339661 512.983398,195.367386 
	C461.898956,189.990768 423.428711,210.827133 394.603882,251.902374 
	C372.620087,283.229156 359.891907,318.434692 351.299957,355.388031 
	C341.424133,397.863220 338.998779,440.990936 340.504913,484.365112 
	C341.850952,523.128845 345.138153,561.724548 355.322815,599.387329 
	C362.551941,626.120728 372.759430,651.499023 389.683594,673.733643 
	C413.441711,704.946655 445.334747,722.100037 483.792206,727.671387 
	C508.718567,731.282593 533.562317,730.766907 558.686707,725.618042 
z"/>
<path fill="#f4f9ff" opacity="1.000000" stroke="none" 
	d="
M434.647888,606.435791 
	C418.337097,605.867920 402.542053,607.516907 386.711243,607.371216 
	C385.211731,607.357422 383.709686,607.400818 382.213135,607.328430 
	C379.759705,607.209717 377.885254,606.110657 377.880402,603.483521 
	C377.875397,600.788940 379.911560,599.814148 382.283417,599.712830 
	C387.267609,599.499939 392.240356,599.640259 397.229797,598.912415 
	C411.881256,596.775085 419.597260,588.161316 419.631012,573.131531 
	C419.695770,544.302673 419.647888,515.473572 419.648010,486.644562 
	C419.648132,445.317413 419.656128,403.990265 419.645935,362.663116 
	C419.643127,351.332550 413.780762,345.391388 402.666046,345.374939 
	C397.000244,345.366547 391.334412,345.333954 385.668701,345.349579 
	C382.691620,345.357819 380.016754,344.547272 380.130890,341.115082 
	C380.241974,337.772949 383.139618,337.580841 385.737946,337.666656 
	C394.726410,337.963409 403.714111,338.608490 412.700104,338.575684 
	C424.854645,338.531311 437.016846,338.169952 449.155884,337.553497 
	C453.673920,337.324066 455.563904,339.128448 457.010864,343.145172 
	C469.593750,378.075012 482.372131,412.934326 495.060608,447.826202 
	C507.179352,481.151459 519.255249,514.492310 531.375366,547.817078 
	C531.866211,549.166687 532.617249,550.421692 533.747437,552.752686 
	C534.998352,549.300354 535.941345,546.869019 536.765686,544.398132 
	C559.050964,477.598755 581.389526,410.816956 603.470276,343.950012 
	C605.165833,338.815186 607.484253,336.990540 612.696594,337.730377 
	C629.319702,340.089874 645.961426,337.195923 662.599365,337.655273 
	C664.098145,337.696716 665.599365,337.651672 667.098022,337.694183 
	C669.624084,337.765869 671.264404,338.875458 671.251770,341.600281 
	C671.238647,344.426544 669.384399,345.291962 666.939331,345.303284 
	C659.107483,345.339539 651.263489,345.602051 643.447754,345.252045 
	C638.520996,345.031433 637.262573,346.864105 637.269470,351.570862 
	C637.387146,432.225250 637.390930,512.879944 637.262024,593.534363 
	C637.254333,598.363037 638.706055,599.919495 643.515930,599.746094 
	C652.669250,599.416077 661.843018,599.667542 671.008301,599.647461 
	C673.872009,599.641235 676.864746,600.063416 676.892822,603.505676 
	C676.921204,606.988770 673.896912,607.436523 671.053345,607.374817 
	C656.729553,607.064636 642.405579,606.452698 628.082764,606.482849 
	C608.260071,606.524536 588.438416,607.046997 568.616150,607.355652 
	C566.950317,607.381592 565.283569,607.355652 563.617310,607.340027 
	C560.875000,607.314270 558.967224,606.021851 559.033081,603.218384 
	C559.095886,600.543762 561.218750,599.693787 563.615662,599.685669 
	C573.114014,599.653564 582.612488,599.660767 592.110962,599.646790 
	C598.940735,599.636719 599.017212,599.632080 599.022217,592.683167 
	C599.058655,542.024109 599.063232,491.365051 599.074951,440.705994 
	C599.079285,421.893585 599.075684,403.081177 598.106812,384.043762 
	C595.151367,392.577057 592.137939,401.090759 589.249695,409.646729 
	C567.310913,474.636017 545.402161,539.635437 523.452209,604.620911 
	C522.657593,606.973450 521.797119,609.378296 520.502747,611.471436 
	C518.108704,615.342834 514.978149,615.166504 513.089600,610.990540 
	C511.102875,606.597656 509.506897,602.022949 507.842377,597.490173 
	C484.080078,532.781311 460.335510,468.066040 436.585876,403.352570 
	C434.008026,396.328369 431.425262,389.305969 427.835938,382.307404 
	C427.680481,384.769348 427.389923,387.231262 427.389313,389.693237 
	C427.375061,447.684143 427.364960,505.675079 427.453094,563.665894 
	C427.460388,568.475342 427.791840,573.350647 428.625061,578.080383 
	C431.294617,593.234314 438.163422,598.968323 453.887299,599.609497 
	C456.715820,599.724854 459.552460,599.654541 462.385284,599.648743 
	C465.306305,599.642700 468.728546,599.617004 468.814178,603.418762 
	C468.900085,607.231323 465.552643,607.411682 462.581726,607.379211 
	C453.420502,607.279175 444.252136,607.392212 434.647888,606.435791 
z"/>
<path fill="#f4f9ff" opacity="1.000000" stroke="none" 
	d="
M453.903015,774.656372 
	C457.193878,774.964111 460.013458,775.178101 462.803314,775.592163 
	C467.684296,776.316467 471.227722,778.744629 472.209930,783.862244 
	C473.210052,789.073181 471.237671,792.645020 465.986298,795.641479 
	C465.437927,795.954468 464.921295,796.322998 463.837189,797.022339 
	C470.922791,799.452576 472.309937,804.814514 472.285767,811.017334 
	C472.274689,813.860107 472.164307,817.003601 476.034515,817.568909 
	C479.872192,818.129395 483.053711,816.881348 484.611969,813.118408 
	C487.412689,806.354919 490.011780,799.508179 492.727020,792.708984 
	C494.763397,787.609863 496.820984,782.518799 498.931702,777.450195 
	C499.558502,775.944946 500.108002,774.024109 502.151917,774.098877 
	C504.176483,774.172913 504.593719,776.150024 505.168793,777.652649 
	C509.391327,788.686462 513.561462,799.740356 517.742859,810.789978 
	C519.075867,814.312439 520.121460,818.088257 524.833862,819.003906 
	C518.187622,819.003906 511.541412,819.003906 503.530212,819.003906 
	C507.826233,817.492065 509.496948,815.700073 507.693878,811.990540 
	C505.768463,808.029419 505.226868,803.438416 498.772095,804.146301 
	C494.059875,804.663025 489.946289,804.002258 488.010834,810.158813 
	C486.483093,815.018433 486.817993,817.442383 492.053253,817.986511 
	C491.872345,819.861511 490.642334,819.468750 489.779785,819.423645 
	C484.437836,819.144165 479.160492,819.981934 473.853241,820.223633 
	C466.249359,820.569885 463.148254,817.542419 462.756256,810.033386 
	C462.660797,808.204895 462.804260,806.344177 462.518127,804.549194 
	C461.728668,799.596985 456.267303,796.371704 451.533356,797.836182 
	C449.577087,798.441467 448.986877,799.791504 448.973694,801.610718 
	C448.949615,804.940857 449.072479,808.278442 448.888092,811.599304 
	C448.678711,815.371460 449.420959,818.214233 453.972412,818.969238 
	C447.186493,818.969238 440.400574,818.969238 433.614655,818.969238 
	C438.871552,818.069885 438.922607,814.403320 438.820099,810.233215 
	C438.611481,801.745483 438.632233,793.246704 438.806000,784.757507 
	C438.889832,780.662476 439.162354,776.775940 433.290802,776.002625 
	C433.491211,775.552673 433.691650,775.102661 433.892090,774.652710 
	C440.400848,774.652710 446.909607,774.652710 453.903015,774.656372 
M462.302338,783.355530 
	C461.609558,782.049683 461.160431,780.510437 460.176605,779.483398 
	C457.608704,776.802490 454.131439,776.593933 450.913055,777.522644 
	C447.959503,778.374878 449.088013,781.413330 448.950226,783.580444 
	C448.782257,786.222656 449.015686,788.888000 448.926453,791.538330 
	C448.813721,794.886292 450.515167,795.805115 453.586060,795.633911 
	C460.194366,795.265442 462.753113,792.053162 462.302338,783.355530 
M498.846466,789.268677 
	C498.259430,788.358032 497.245850,787.436890 496.681244,788.824097 
	C495.029449,792.882141 492.915527,796.823303 492.266785,801.577942 
	C495.977722,801.843445 499.342682,802.284241 503.228302,801.216553 
	C501.806427,797.234802 500.485657,793.536133 498.846466,789.268677 
z"/>
<path fill="#f4f9ff" opacity="1.000000" stroke="none" 
	d="
M421.033325,777.927368 
	C426.907654,784.748230 425.612915,789.650452 416.622772,795.747925 
	C416.891083,795.968689 417.108948,796.251526 417.394562,796.367554 
	C422.786957,798.558899 426.628571,802.136230 426.034271,808.341553 
	C425.436615,814.581482 420.708313,817.171997 415.228394,818.581116 
	C405.771240,821.013000 396.261230,818.367371 386.395996,819.087402 
	C392.530579,818.108337 392.014679,813.970520 391.945374,809.810059 
	C391.803986,801.324951 391.827606,792.834167 391.964844,784.348633 
	C392.029297,780.365479 392.179169,776.583801 386.730103,775.368835 
	C398.252441,775.734863 409.734924,772.197632 421.033325,777.927368 
M402.079132,811.238770 
	C402.289703,813.152222 401.586731,815.226562 403.008881,816.911499 
	C413.196655,817.319885 417.825165,812.319580 415.767548,803.206177 
	C414.890717,799.322632 410.529846,796.808044 405.628937,797.139954 
	C400.679016,797.475281 402.391388,801.217712 402.123688,803.853638 
	C401.907257,805.984985 402.079834,808.155884 402.079132,811.238770 
M412.989838,779.557983 
	C412.012177,778.938110 411.107269,778.118469 410.044769,777.731628 
	C404.213501,775.608582 402.110443,777.102844 402.079742,783.299072 
	C402.066559,785.962463 402.142181,788.626221 402.125946,791.289490 
	C402.109894,793.921509 403.476746,794.728088 405.944550,794.571594 
	C413.758057,794.076050 416.745056,788.433777 412.989838,779.557983 
z"/>
<path fill="#f4f9ff" opacity="1.000000" stroke="none" 
	d="
M621.764648,783.383972 
	C631.252747,799.109009 624.759094,814.721802 607.308167,818.521301 
	C597.870789,820.576111 588.305420,818.761414 578.411743,819.010559 
	C584.601379,818.114807 584.011902,813.904785 583.954224,809.777283 
	C583.835388,801.283569 583.806030,792.784851 583.967041,784.292542 
	C584.043274,780.270935 583.999146,776.629944 577.935791,775.992859 
	C580.372864,774.256653 582.211121,774.610352 583.881287,774.694031 
	C591.848938,775.093689 599.872498,773.798035 607.796997,775.552917 
	C613.127441,776.733276 617.932007,778.801697 621.764648,783.383972 
M608.705444,814.339844 
	C615.638000,809.191101 616.158997,801.804565 615.739441,794.107361 
	C615.193909,784.099365 609.864014,778.500183 600.055542,777.223938 
	C595.866455,776.678772 593.851196,777.720947 593.999756,782.410034 
	C594.263428,790.730591 594.074219,799.065430 594.079956,807.394287 
	C594.087891,818.831726 596.456421,820.247803 607.221008,815.252136 
	C607.521301,815.112793 607.792297,814.910278 608.705444,814.339844 
z"/>
<path fill="#f4f9ff" opacity="1.000000" stroke="none" 
	d="
M536.343262,799.992676 
	C536.340881,803.651794 536.490479,806.822449 536.299683,809.972473 
	C536.052917,814.046448 536.823120,817.326843 542.118774,818.103760 
	C538.231750,819.640503 534.240479,819.800293 527.273438,818.657654 
	C534.102966,817.404114 533.896667,813.160828 533.910339,808.794861 
	C533.938477,799.817261 534.002319,790.829041 534.479248,781.867981 
	C534.711853,777.496887 531.190369,777.295044 528.437561,775.758850 
	C538.292969,772.491638 544.682312,774.511902 549.856873,782.131836 
	C553.966492,788.183594 558.142639,794.190369 562.316650,800.197998 
	C562.449707,800.389404 562.885071,800.370728 563.686584,800.586426 
	C563.686584,793.863586 563.756104,787.279907 563.656494,780.698669 
	C563.608643,777.537476 560.538025,777.207458 557.587891,775.259399 
	C562.705627,775.259399 566.836243,775.259399 570.966797,775.259399 
	C566.307739,777.392822 566.180359,781.264893 566.267517,785.587402 
	C566.462036,795.233704 566.319397,804.887573 566.239441,814.537720 
	C566.225098,816.276550 566.785583,818.200195 564.324158,820.704163 
	C555.272583,807.676086 546.383911,794.882568 537.495300,782.089050 
	C537.111511,782.178223 536.727783,782.267456 536.343994,782.356689 
	C536.343994,788.069458 536.343994,793.782227 536.343262,799.992676 
z"/>
</svg>