<svg width="286" height="345" viewBox="0 0 286 345" fill="none" xmlns="http://www.w3.org/2000/svg">
<g clip-path="url(#clip0_2_54)">
<path d="M179.181 293.873C214.857 285.852 239.611 264.134 257.19 233.213C257.81 232.124 258.375 230.999 259.056 229.951C260.551 227.65 262.662 227.156 265.059 228.535C267.434 229.9 266.788 231.804 265.815 233.642C252.901 258.019 236.142 278.779 211.038 291.638C198.557 298.032 185.261 301.702 171.382 303.425C159.247 304.931 147.075 305.044 134.943 303.84C102.275 300.599 73.2346 288.675 48.7853 266.52C25.1414 245.094 10.5091 218.341 3.66524 187.339C0.0820501 171.108 -0.789658 154.653 0.674344 138.018C2.58855 116.267 8.09683 95.5814 18.253 76.278C38.9424 36.9548 70.7045 11.8006 114.529 2.95724C136.735 -1.52354 158.987 -1.49423 180.746 5.9981C191.562 9.72217 201.49 15.234 211.028 21.491C213.347 23.0125 215.709 24.4772 218.124 25.839C219.438 26.5796 220.863 27.1928 222.31 27.6151C227.553 29.145 231.23 25.9369 230.547 20.5008C230.191 17.6633 229.802 14.8299 229.437 11.9934C228.948 8.17896 229.744 6.35622 232.086 5.89727C236.103 5.11036 237.901 6.18558 238.978 10.2504C240.123 14.569 241.099 18.932 242.206 23.261C246.435 39.7968 253.421 55.3201 259.81 71.0616C261.088 74.2121 262.364 77.3667 263.758 80.4668C264.655 82.4624 264.535 84.2003 262.693 85.4422C260.705 86.7823 258.713 86.3926 257.131 84.6707C256.172 83.627 255.442 82.3643 254.663 81.1655C242.183 61.9724 227.837 44.4531 209.314 30.6945C193.021 18.5918 174.904 11.1049 154.625 8.97059C127.178 6.08174 106.508 17.2771 91.02 39.3467C79.2082 56.1786 72.3693 75.0945 67.7529 94.9494C62.4466 117.771 61.1435 140.944 61.9527 164.249C62.676 185.076 64.4422 205.814 69.9144 226.05C73.7986 240.414 79.283 254.049 88.3764 265.996C101.142 282.767 118.278 291.983 138.941 294.977C152.334 296.917 165.682 296.64 179.181 293.873Z" fill="#272729"/>
<path d="M112.536 229.837C103.772 229.532 95.2852 230.418 86.7793 230.34C85.9736 230.332 85.1666 230.355 84.3625 230.317C83.0443 230.253 82.0371 229.662 82.0345 228.251C82.0318 226.803 83.1259 226.279 84.4003 226.225C87.0783 226.11 89.7501 226.186 92.4309 225.795C100.303 224.646 104.449 220.018 104.467 211.943C104.502 196.453 104.476 180.963 104.476 165.473C104.476 143.268 104.481 121.063 104.475 98.8583C104.474 92.7704 101.324 89.5782 95.3518 89.5694C92.3076 89.5649 89.2634 89.5474 86.2192 89.5558C84.6196 89.5602 83.1824 89.1247 83.2437 87.2806C83.3034 85.4849 84.8603 85.3816 86.2564 85.4277C91.0859 85.5872 95.9149 85.9338 100.743 85.9162C107.274 85.8923 113.808 85.6982 120.331 85.3669C122.758 85.2437 123.774 86.2132 124.551 88.3713C131.312 107.139 138.178 125.869 144.995 144.616C151.507 162.522 157.995 180.436 164.507 198.341C164.771 199.066 165.174 199.741 165.782 200.993C166.454 199.138 166.96 197.832 167.403 196.504C179.377 160.613 191.38 124.731 203.244 88.8038C204.155 86.0449 205.4 85.0645 208.201 85.462C217.132 86.7297 226.074 85.1748 235.014 85.4216C235.819 85.4439 236.625 85.4197 237.431 85.4425C238.788 85.4811 239.669 86.0772 239.662 87.5413C239.655 89.0598 238.659 89.5248 237.345 89.5309C233.137 89.5504 228.923 89.6914 224.723 89.5034C222.076 89.3848 221.4 90.3695 221.404 92.8985C221.467 136.234 221.469 179.57 221.4 222.905C221.396 225.499 222.176 226.336 224.76 226.243C229.678 226.065 234.607 226.2 239.532 226.19C241.07 226.186 242.678 226.413 242.693 228.263C242.709 230.134 241.084 230.375 239.556 230.342C231.86 230.175 224.163 229.846 216.468 229.862C205.817 229.885 195.167 230.165 184.517 230.331C183.621 230.345 182.726 230.331 181.831 230.323C180.357 230.309 179.332 229.615 179.368 228.108C179.401 226.671 180.542 226.215 181.83 226.21C186.933 226.193 192.037 226.197 197.14 226.189C200.81 226.184 200.851 226.181 200.854 222.448C200.873 195.229 200.876 168.01 200.882 140.791C200.884 130.683 200.882 120.575 200.362 110.346C198.774 114.931 197.155 119.505 195.603 124.103C183.815 159.021 172.044 193.945 160.25 228.862C159.823 230.126 159.361 231.418 158.665 232.543C157.379 234.623 155.697 234.528 154.682 232.284C153.615 229.924 152.757 227.466 151.863 225.031C139.095 190.263 126.338 155.491 113.577 120.721C112.192 116.947 110.804 113.173 108.876 109.413C108.792 110.736 108.636 112.059 108.636 113.382C108.628 144.54 108.623 175.698 108.67 206.857C108.674 209.441 108.852 212.06 109.3 214.602C110.734 222.744 114.425 225.825 122.873 226.169C124.393 226.231 125.917 226.193 127.439 226.19C129.008 226.187 130.847 226.173 130.893 228.216C130.939 230.264 129.141 230.361 127.544 230.344C122.622 230.29 117.696 230.351 112.536 229.837Z" fill="#272729"/>
<path d="M122.881 320.222C124.65 320.387 126.164 320.502 127.663 320.724C130.286 321.114 132.19 322.418 132.718 325.168C133.255 327.968 132.195 329.887 129.374 331.497C129.079 331.665 128.801 331.863 128.219 332.239C132.026 333.545 132.771 336.426 132.758 339.758C132.752 341.286 132.693 342.975 134.773 343.278C136.835 343.58 138.544 342.909 139.381 340.887C140.886 337.253 142.283 333.574 143.741 329.921C144.836 327.181 145.941 324.446 147.075 321.723C147.412 320.914 147.707 319.882 148.805 319.922C149.893 319.962 150.117 321.024 150.426 321.832C152.695 327.76 154.936 333.699 157.182 339.636C157.899 341.529 158.46 343.557 160.992 344.049C157.421 344.049 153.85 344.049 149.546 344.049C151.854 343.237 152.752 342.274 151.783 340.281C150.749 338.153 150.458 335.686 146.989 336.066C144.458 336.344 142.247 335.989 141.207 339.297C140.387 341.908 140.567 343.21 143.379 343.503C143.282 344.51 142.621 344.299 142.158 344.275C139.288 344.125 136.452 344.575 133.601 344.705C129.515 344.891 127.849 343.264 127.638 339.23C127.587 338.247 127.664 337.247 127.51 336.283C127.086 333.622 124.152 331.889 121.608 332.676C120.557 333.001 120.24 333.727 120.233 334.704C120.22 336.493 120.286 338.287 120.187 340.071C120.074 342.098 120.473 343.625 122.919 344.031C119.273 344.031 115.627 344.031 111.98 344.031C114.805 343.548 114.832 341.578 114.777 339.337C114.665 334.777 114.676 330.21 114.77 325.649C114.815 323.449 114.961 321.36 111.806 320.945C111.914 320.703 112.022 320.461 112.13 320.22C115.627 320.22 119.124 320.22 122.881 320.222ZM127.394 324.896C127.022 324.194 126.781 323.367 126.252 322.815C124.872 321.375 123.004 321.263 121.275 321.762C119.688 322.22 120.294 323.852 120.22 325.016C120.13 326.436 120.255 327.868 120.207 329.292C120.147 331.091 121.061 331.585 122.711 331.493C126.262 331.295 127.636 329.569 127.394 324.896ZM147.029 328.073C146.714 327.583 146.169 327.089 145.866 327.834C144.979 330.014 143.843 332.132 143.494 334.687C145.488 334.829 147.296 335.066 149.384 334.492C148.62 332.353 147.91 330.366 147.029 328.073Z" fill="#272729"/>
<path d="M105.221 321.979C108.377 325.644 107.681 328.278 102.851 331.554C102.995 331.673 103.112 331.825 103.265 331.887C106.163 333.064 108.227 334.986 107.908 338.321C107.586 341.673 105.046 343.065 102.102 343.822C97.0202 345.129 91.9105 343.707 86.6099 344.094C89.906 343.568 89.6288 341.345 89.5916 339.11C89.5156 334.551 89.5283 329.988 89.6021 325.429C89.6367 323.289 89.7172 321.257 86.7895 320.604C92.9804 320.801 99.1499 318.901 105.221 321.979ZM95.0365 339.877C95.1496 340.905 94.7719 342.02 95.536 342.925C101.01 343.145 103.497 340.458 102.391 335.561C101.92 333.475 99.577 332.124 96.9438 332.302C94.2842 332.482 95.2042 334.493 95.0604 335.909C94.9441 337.054 95.0368 338.221 95.0365 339.877ZM100.899 322.855C100.373 322.522 99.8873 322.082 99.3164 321.874C96.1833 320.733 95.0533 321.536 95.0368 324.865C95.0297 326.296 95.0703 327.728 95.0616 329.159C95.053 330.573 95.7874 331.006 97.1133 330.922C101.312 330.656 102.916 327.624 100.899 322.855Z" fill="#272729"/>
<path d="M213.073 324.911C218.171 333.36 214.682 341.749 205.306 343.79C200.235 344.894 195.096 343.919 189.78 344.053C193.105 343.572 192.789 341.31 192.758 339.092C192.694 334.528 192.678 329.962 192.765 325.399C192.805 323.238 192.782 321.282 189.524 320.94C190.833 320.007 191.821 320.197 192.718 320.242C196.999 320.457 201.311 319.76 205.568 320.703C208.432 321.338 211.014 322.449 213.073 324.911ZM206.056 341.543C209.781 338.777 210.061 334.808 209.836 330.673C209.543 325.295 206.679 322.287 201.409 321.601C199.158 321.308 198.075 321.868 198.155 324.388C198.297 328.858 198.195 333.337 198.198 337.812C198.202 343.957 199.475 344.718 205.259 342.034C205.42 341.959 205.566 341.85 206.056 341.543Z" fill="#272729"/>
<path d="M167.176 333.835C167.175 335.801 167.255 337.504 167.153 339.197C167.02 341.386 167.434 343.148 170.28 343.566C168.191 344.392 166.047 344.477 162.303 343.863C165.973 343.19 165.862 340.91 165.869 338.564C165.884 333.741 165.919 328.911 166.175 324.096C166.3 321.748 164.408 321.639 162.929 320.814C168.224 319.059 171.657 320.144 174.437 324.238C176.645 327.49 178.889 330.717 181.132 333.945C181.203 334.048 181.437 334.038 181.868 334.154C181.868 330.542 181.905 327.004 181.852 323.468C181.826 321.77 180.176 321.592 178.591 320.546C181.341 320.546 183.56 320.546 185.78 320.546C183.276 321.692 183.208 323.772 183.255 326.095C183.359 331.278 183.282 336.465 183.24 341.65C183.232 342.584 183.533 343.618 182.21 344.963C177.347 337.963 172.571 331.089 167.795 324.215C167.589 324.263 167.383 324.311 167.177 324.359C167.177 327.428 167.177 330.498 167.176 333.835Z" fill="#272729"/>
</g>
<defs>
<clipPath id="clip0_2_54">
<rect width="286" height="345" fill="white"/>
</clipPath>
</defs>
</svg>
